<?xml version="1.0" standalone="no"?>
<!DOCTYPE svg PUBLIC "-//W3C//DTD SVG 20010904//EN"
 "http://www.w3.org/TR/2001/REC-SVG-20010904/DTD/svg10.dtd">
<svg version="1.0" xmlns="http://www.w3.org/2000/svg"
 width="512.000000pt" height="512.000000pt" viewBox="0 0 512.000000 512.000000"
 preserveAspectRatio="xMidYMid meet">
<metadata>
Created by potrace 1.16, written by Peter Selinger 2001-2019
</metadata>
<g transform="translate(0.000000,512.000000) scale(0.100000,-0.100000)"
fill="#000000" stroke="none">
<path d="M126 5022 c42 -122 127 -539 154 -754 24 -195 26 -420 5 -542 -30
-170 -100 -302 -220 -415 -58 -54 -65 -64 -65 -98 0 -28 3 -34 10 -23 5 8 10
12 10 8 0 -7 32 18 66 50 7 7 17 12 21 10 12 -3 103 114 103 133 0 9 6 19 14
22 18 7 67 142 59 164 -4 10 -2 14 4 10 6 -4 8 3 5 20 -3 17 1 30 11 38 34 25
38 286 7 500 -5 39 -12 109 -15 157 -2 49 -18 140 -34 205 -17 65 -44 191 -61
280 -26 139 -53 236 -85 316 -4 9 -11 17 -15 17 -5 0 7 -44 26 -98z"/>
<path d="M211 5105 c0 -11 4 -38 9 -60 5 -22 16 -97 25 -167 9 -71 32 -194 51
-275 56 -238 63 -276 85 -456 16 -132 20 -212 17 -346 -2 -102 0 -160 5 -140
15 63 20 361 8 465 -6 54 -31 185 -55 289 -60 258 -75 330 -82 395 -4 30 -10
62 -14 70 -4 8 -11 42 -15 75 -8 69 -33 180 -34 150z"/>
<path d="M501 5042 c-11 -43 -23 -100 -26 -127 -4 -48 -4 -49 4 -10 5 22 23
77 40 123 36 97 35 92 17 92 -9 0 -21 -28 -35 -78z"/>
<path d="M635 5108 c-26 -70 -69 -230 -80 -297 -17 -95 -20 -267 -5 -276 14
-8 18 22 24 170 5 100 12 149 31 210 34 107 55 205 43 205 -5 0 -11 -6 -13
-12z"/>
<path d="M686 5098 c-11 -44 -5 -65 9 -28 17 43 17 50 6 50 -5 0 -11 -10 -15
-22z"/>
<path d="M932 5103 c-23 -44 -65 -188 -87 -298 -24 -123 -40 -244 -50 -395 -5
-76 -4 -82 8 -60 8 14 17 57 21 96 9 103 33 233 67 369 17 66 32 127 32 135 1
8 5 17 9 20 5 5 58 136 58 146 0 13 -51 1 -58 -13z"/>
<path d="M1227 5041 c-47 -102 -270 -701 -281 -754 -2 -7 -6 -20 -10 -29 -4
-9 -9 -22 -10 -30 -2 -7 -6 -20 -9 -28 -21 -55 -39 -126 -42 -167 -3 -26 -7
-66 -10 -88 -6 -38 -6 -39 7 -15 8 14 29 68 47 120 34 97 85 202 126 255 12
17 39 62 58 102 20 39 62 113 93 165 31 51 83 145 115 208 51 101 117 201 204
308 18 22 22 32 12 32 -27 0 -190 -227 -271 -378 -43 -80 -97 -173 -120 -205
-45 -65 -86 -132 -63 -105 8 10 17 15 20 11 4 -3 3 -11 -2 -17 -5 -6 -31 -50
-59 -99 -33 -57 -52 -82 -56 -72 -3 8 -1 15 4 15 6 0 10 9 10 19 0 26 59 192
115 326 25 61 53 131 61 157 16 51 89 215 129 289 14 26 25 50 25 53 0 3 -13
6 -29 6 -26 0 -31 -7 -64 -79z"/>
<path d="M1736 5035 c-26 -46 -58 -114 -72 -150 -13 -37 -33 -83 -43 -103 -32
-62 -182 -250 -305 -382 -152 -162 -239 -278 -319 -424 -55 -100 -66 -115 -72
-96 -4 12 -5 48 -1 79 l5 56 -12 -43 c-7 -24 -15 -41 -19 -37 -4 4 -4 -2 -1
-14 3 -13 1 -21 -6 -21 -7 0 -10 -4 -7 -9 11 -16 -103 -380 -144 -462 -102
-205 -261 -380 -530 -584 -52 -39 -121 -89 -152 -110 -52 -34 -58 -42 -58 -71
0 -19 3 -34 7 -34 15 0 234 149 308 210 44 36 88 72 99 80 41 33 175 168 217
220 25 30 77 105 116 166 61 94 80 136 131 285 109 315 225 503 489 788 188
203 274 318 313 418 49 129 64 161 105 241 43 81 43 82 20 82 -19 0 -32 -15
-69 -85z"/>
<path d="M2092 5073 c-52 -120 -34 -137 23 -22 32 62 33 69 16 69 -13 0 -25
-15 -39 -47z"/>
<path d="M2529 5083 c-19 -21 -47 -54 -61 -73 -14 -19 -37 -46 -51 -60 -39
-40 -113 -143 -142 -199 -49 -98 -83 -201 -66 -201 5 0 12 18 16 39 7 45 67
175 85 186 6 4 4 -8 -5 -26 -23 -45 -16 -37 40 46 27 39 51 72 54 75 4 3 17
19 29 35 13 17 64 72 114 123 l91 92 -34 0 c-27 0 -43 -8 -70 -37z"/>
<path d="M3429 5037 c-91 -87 -251 -191 -282 -183 -10 2 -14 0 -10 -7 4 -6 0
-8 -10 -4 -10 3 -17 2 -17 -4 0 -6 -4 -8 -9 -4 -15 9 -139 -42 -226 -93 -158
-93 -287 -215 -357 -339 -23 -40 -33 -51 -43 -43 -13 11 -31 -43 -79 -237 -60
-240 -163 -374 -392 -509 -115 -67 -151 -84 -434 -194 -330 -129 -431 -178
-620 -304 -173 -115 -483 -359 -553 -435 -40 -44 -163 -110 -315 -171 -45 -18
-81 -34 -78 -37 5 -6 169 58 244 95 160 79 209 114 498 347 219 176 264 208
404 283 88 47 308 124 435 152 60 14 96 26 155 53 25 11 75 30 112 43 295 100
503 294 578 538 12 36 29 107 40 157 24 109 59 191 104 239 17 19 45 54 61 78
15 24 46 57 68 75 22 18 62 51 89 75 71 62 124 94 145 90 29 -7 319 145 413
216 47 35 119 96 160 135 l75 70 -35 0 c-30 0 -47 -11 -121 -82z"/>
<path d="M3695 5060 c-26 -33 -50 -58 -54 -56 -4 3 -25 -14 -47 -37 l-39 -42
41 35 c22 19 14 10 -17 -20 -55 -52 -191 -142 -399 -263 -125 -73 -242 -160
-351 -264 -104 -99 -154 -164 -175 -227 -26 -75 -13 -83 31 -20 57 82 306 353
270 293 -5 -7 31 22 81 64 109 95 214 166 359 243 191 100 288 175 356 275 46
68 48 79 15 79 -18 0 -37 -16 -71 -60z"/>
<path d="M4580 5113 c0 -5 -21 -21 -48 -38 -82 -51 -254 -218 -388 -375 -173
-203 -227 -244 -505 -385 -187 -94 -254 -135 -390 -233 -227 -165 -250 -199
-40 -58 95 64 221 140 280 167 58 28 113 58 122 65 9 8 79 40 155 70 167 66
256 113 307 162 40 38 141 170 217 282 53 79 181 214 270 283 36 28 69 54 75
59 5 4 -5 8 -23 8 -18 0 -32 -3 -32 -7z"/>
<path d="M4630 5069 c-103 -80 -191 -161 -261 -241 -35 -40 -54 -64 -41 -54
12 11 22 15 22 10 0 -5 4 -4 8 1 4 6 27 20 52 33 25 12 66 40 92 62 56 49 223
162 287 195 83 43 83 45 -9 44 l-85 0 -65 -50z"/>
<path d="M403 5050 c0 -36 2 -50 4 -32 2 17 2 47 0 65 -2 17 -4 3 -4 -33z"/>
<path d="M1377 5073 c-37 -59 -60 -106 -47 -98 8 5 10 -4 5 -32 l-5 -38 19 40
c21 43 62 165 55 165 -2 0 -14 -17 -27 -37z"/>
<path d="M5081 5080 c-12 -11 -28 -17 -34 -13 -5 3 -7 1 -4 -4 4 -6 -15 -28
-41 -49 -26 -21 -41 -30 -33 -19 7 11 -5 1 -27 -22 -22 -24 -44 -43 -50 -43
-31 0 -563 -572 -547 -588 2 -3 -32 -45 -77 -95 -44 -50 -114 -141 -154 -204
-61 -93 -86 -122 -141 -163 -83 -61 -232 -136 -378 -190 -174 -65 -301 -132
-427 -225 -65 -47 -118 -89 -118 -92 0 -3 15 6 33 19 204 152 320 216 522 288
121 43 218 87 267 121 14 11 34 19 43 19 14 0 145 124 231 220 17 19 59 62 93
95 34 33 90 98 124 145 128 178 219 289 333 409 112 117 358 344 404 373 19
12 28 38 13 38 -5 -1 -19 -9 -32 -20z"/>
<path d="M3361 5044 c-60 -47 -223 -143 -280 -164 -47 -17 -111 -49 -100 -50
14 -1 119 39 169 65 65 33 219 137 245 165 25 28 17 24 -34 -16z"/>
<path d="M4910 5017 c-41 -33 -120 -99 -175 -146 -55 -47 -123 -104 -150 -126
-28 -22 -115 -103 -195 -180 -151 -147 -222 -196 -343 -240 l-60 -22 39 -5
c61 -9 68 -12 91 -35 20 -21 42 -16 29 6 -4 5 3 7 14 4 11 -3 20 0 20 6 0 6 6
11 14 11 22 0 188 163 300 294 110 129 218 236 359 355 48 41 87 79 87 83 0 5
4 7 9 4 5 -3 14 1 21 9 7 8 9 15 4 15 -5 0 -2 4 6 10 8 5 12 11 10 13 -3 2
-39 -23 -80 -56z"/>
<path d="M671 5014 c0 -11 3 -14 6 -6 3 7 2 16 -1 19 -3 4 -6 -2 -5 -13z"/>
<path d="M627 4943 c-29 -90 -36 -128 -42 -228 -6 -113 8 -103 19 15 4 41 16
115 26 165 10 49 17 91 15 93 -2 2 -10 -18 -18 -45z"/>
<path d="M661 4974 c0 -11 3 -14 6 -6 3 7 2 16 -1 19 -3 4 -6 -2 -5 -13z"/>
<path d="M385 4887 c-4 -51 -5 -102 -3 -113 2 -10 7 30 11 90 4 60 6 111 3
113 -2 2 -7 -38 -11 -90z"/>
<path d="M2061 4924 c0 -11 3 -14 6 -6 3 7 2 16 -1 19 -3 4 -6 -2 -5 -13z"/>
<path d="M2010 4782 c-39 -91 -183 -383 -247 -499 -46 -86 -54 -115 -10 -40
105 179 307 600 295 613 -3 2 -20 -31 -38 -74z"/>
<path d="M462 4825 c0 -16 2 -22 5 -12 2 9 2 23 0 30 -3 6 -5 -1 -5 -18z"/>
<path d="M5055 4794 c-27 -19 -107 -66 -177 -105 -70 -38 -149 -87 -176 -108
-110 -88 -244 -296 -257 -401 -3 -32 -3 -38 4 -20 4 14 27 63 51 110 89 178
195 281 405 395 146 79 215 126 215 146 0 25 -6 24 -65 -17z"/>
<path d="M357 4733 c16 -174 39 -320 49 -310 3 3 0 33 -6 68 -5 35 -14 111
-19 168 -6 57 -14 108 -19 113 -6 6 -8 -8 -5 -39z"/>
<path d="M453 4680 c0 -47 2 -66 4 -42 2 23 2 61 0 85 -2 23 -4 4 -4 -43z"/>
<path d="M1 4611 c-1 -89 2 -132 9 -125 6 6 7 54 1 134 l-8 125 -2 -134z"/>
<path d="M5095 4680 c-3 -5 -52 -35 -108 -66 -56 -32 -129 -75 -162 -98 -97
-65 -234 -205 -292 -298 -94 -151 -78 -162 21 -14 98 145 224 252 439 371 104
57 127 74 127 93 0 22 -14 30 -25 12z"/>
<path d="M3414 4564 c-114 -81 -263 -212 -323 -284 -38 -46 -29 -39 57 40 56
52 158 140 227 195 68 55 127 104 131 108 19 18 -8 1 -92 -59z"/>
<path d="M461 4574 c0 -11 3 -14 6 -6 3 7 2 16 -1 19 -3 4 -6 -2 -5 -13z"/>
<path d="M460 4518 c0 -36 4 -35 14 5 4 16 2 27 -4 27 -5 0 -10 -14 -10 -32z"/>
<path d="M5062 4516 c-51 -32 -92 -64 -242 -185 -41 -34 -94 -68 -117 -77 -52
-20 -55 -34 -9 -34 34 0 83 32 216 141 30 24 90 65 132 89 67 39 78 49 78 73
0 15 -1 27 -2 26 -2 0 -27 -15 -56 -33z"/>
<path d="M2206 4519 c-3 -13 -17 -78 -32 -144 -74 -339 -134 -425 -446 -634
-93 -61 -168 -114 -168 -116 0 -2 48 23 108 57 340 192 446 306 502 540 22 91
53 308 45 316 -2 2 -6 -6 -9 -19z"/>
<path d="M480 4496 c0 -19 4 -68 10 -108 5 -40 14 -125 20 -188 5 -63 19 -140
30 -170 23 -64 27 -47 5 24 -8 27 -15 79 -15 115 0 36 -9 120 -20 186 -10 66
-17 130 -14 142 3 11 1 24 -5 27 -7 5 -11 -5 -11 -28z"/>
<path d="M1370 4293 l-185 -188 188 185 c103 102 187 186 187 187 0 8 -18 -10
-190 -184z"/>
<path d="M1040 4390 c-6 -11 -8 -20 -6 -20 3 0 10 9 16 20 6 11 8 20 6 20 -3
0 -10 -9 -16 -20z"/>
<path d="M5039 4328 c-41 -29 -93 -68 -115 -86 l-39 -34 40 22 c106 57 199
124 193 140 -2 6 -37 -13 -79 -42z"/>
<path d="M13 4285 c0 -44 2 -61 4 -37 2 23 2 59 0 80 -2 20 -4 1 -4 -43z"/>
<path d="M4304 4308 l-29 -33 33 29 c17 17 32 31 32 33 0 8 -8 1 -36 -29z"/>
<path d="M1510 4168 c-74 -89 -182 -221 -240 -294 -124 -158 -170 -230 -84
-134 32 36 110 119 174 185 210 216 307 342 290 375 -5 10 -6 20 -3 24 3 3 4
6 2 6 -2 0 -65 -73 -139 -162z"/>
<path d="M37 4210 c-4 -63 -11 -200 -17 -305 -5 -104 -13 -210 -16 -235 -8
-58 3 -47 22 21 17 60 32 420 24 554 l-5 80 -8 -115z"/>
<path d="M782 4290 c0 -14 2 -19 5 -12 2 6 2 18 0 25 -3 6 -5 1 -5 -13z"/>
<path d="M4225 4239 c-22 -22 -78 -73 -125 -112 -113 -94 -123 -104 -73 -73
23 14 48 27 55 28 23 5 37 22 24 30 -7 5 -7 8 0 8 11 0 164 143 164 153 0 12
-5 8 -45 -34z"/>
<path d="M5075 4239 c-22 -25 -77 -90 -123 -146 -75 -91 -158 -169 -250 -232
-18 -13 -106 -61 -195 -108 -288 -151 -396 -235 -567 -448 -53 -66 -150 -178
-214 -250 -127 -141 -231 -274 -290 -373 -57 -95 -188 -373 -234 -497 -191
-514 -270 -720 -298 -782 -18 -40 -48 -119 -68 -175 -19 -57 -49 -132 -66
-168 -28 -59 -31 -57 -14 15 5 23 1 16 -61 -120 -71 -154 -145 -272 -460 -735
-54 -80 -112 -162 -128 -182 l-29 -38 45 0 c44 0 44 0 102 83 32 45 71 99 87
119 15 20 28 41 28 46 0 5 10 17 21 28 30 26 109 130 109 143 0 5 6 16 13 23
34 34 112 166 172 293 101 210 153 317 170 345 30 52 134 276 141 305 4 17 11
35 15 41 11 14 141 387 169 484 11 41 33 113 48 160 14 47 27 87 28 90 6 30
58 147 75 172 11 14 19 33 19 41 0 16 58 131 89 176 10 14 62 91 114 170 53
79 124 174 159 211 161 171 199 213 288 319 109 131 163 186 275 281 103 87
170 129 311 195 207 98 318 185 435 343 40 54 85 111 101 128 21 23 29 39 26
59 l-3 28 -40 -44z"/>
<path d="M776 4243 c-6 -14 -5 -15 5 -6 7 7 10 15 7 18 -3 3 -9 -2 -12 -12z"/>
<path d="M4714 4159 c-49 -56 -115 -123 -147 -150 -61 -51 -68 -65 -14 -27 62
43 149 124 186 173 45 58 75 105 69 105 -3 0 -45 -45 -94 -101z"/>
<path d="M841 4214 c0 -11 3 -14 6 -6 3 7 2 16 -1 19 -3 4 -6 -2 -5 -13z"/>
<path d="M1695 4164 c-9 -15 -12 -23 -6 -20 11 7 35 46 28 46 -3 0 -12 -12
-22 -26z"/>
<path d="M831 4164 c0 -11 3 -14 6 -6 3 7 2 16 -1 19 -3 4 -6 -2 -5 -13z"/>
<path d="M0 4147 c0 -14 5 -29 10 -32 7 -4 8 3 4 22 -9 38 -14 42 -14 10z"/>
<path d="M1634 4083 c-21 -27 -68 -80 -104 -119 l-65 -70 75 75 c71 72 147
161 137 161 -3 0 -22 -21 -43 -47z"/>
<path d="M3801 4118 c-84 -12 -171 -41 -251 -85 -73 -39 -155 -105 -171 -136
-11 -20 -11 -20 22 1 90 55 216 124 231 127 9 2 27 9 40 16 13 7 26 12 31 11
4 -1 7 3 7 9 0 6 7 9 15 5 8 -3 15 -1 15 4 0 5 7 7 15 4 8 -4 15 -1 15 6 0 7
7 10 15 6 8 -3 15 -1 15 5 0 6 4 8 9 5 5 -3 33 3 62 13 44 16 48 19 24 19 -16
0 -59 -5 -94 -10z"/>
<path d="M821 4104 c0 -11 3 -14 6 -6 3 7 2 16 -1 19 -3 4 -6 -2 -5 -13z"/>
<path d="M133 4020 c0 -41 2 -58 4 -37 2 20 2 54 0 75 -2 20 -4 3 -4 -38z"/>
<path d="M1154 4068 l-19 -23 23 19 c12 11 22 21 22 23 0 8 -8 2 -26 -19z"/>
<path d="M811 4024 c0 -11 3 -14 6 -6 3 7 2 16 -1 19 -3 4 -6 -2 -5 -13z"/>
<path d="M1119 4023 c-13 -16 -12 -17 4 -4 9 7 17 15 17 17 0 8 -8 3 -21 -13z"/>
<path d="M579 3965 c-1 -44 -3 -52 -8 -31 -3 16 -6 -40 -7 -125 0 -122 -5
-172 -21 -239 -41 -164 -83 -230 -278 -436 -72 -76 -123 -134 -115 -129 48 29
175 133 211 173 51 58 134 174 160 224 44 85 70 224 76 409 4 121 2 182 -5
195 -9 16 -12 8 -13 -41z m8 -132 c-3 -10 -5 -4 -5 12 0 17 2 24 5 18 2 -7 2
-21 0 -30z"/>
<path d="M2 3960 c0 -19 2 -27 5 -17 2 9 2 25 0 35 -3 9 -5 1 -5 -18z"/>
<path d="M806 3975 c-9 -26 -7 -32 5 -12 6 10 9 21 6 23 -2 3 -7 -2 -11 -11z"/>
<path d="M441 3860 c-3 -160 -6 -185 -40 -338 -23 -103 -57 -176 -135 -297
-51 -77 -164 -210 -173 -201 -2 2 -14 -6 -26 -18 -12 -12 -33 -29 -45 -38 -13
-9 -22 -24 -20 -33 2 -14 11 -10 51 20 26 20 52 33 59 29 6 -4 8 -3 5 3 -4 5
25 44 62 85 109 118 203 286 247 444 16 58 32 371 21 439 -2 17 -5 -26 -6 -95z"/>
<path d="M5060 3916 c-30 -32 -89 -84 -131 -115 -132 -98 -137 -104 -24 -29
124 83 219 166 214 188 -3 10 -22 -4 -59 -44z"/>
<path d="M718 3920 c-4 -8 -27 -96 -52 -195 -65 -263 -105 -371 -172 -472 -82
-124 -239 -272 -442 -417 -32 -24 -52 -45 -52 -58 0 -18 3 -18 50 8 28 15 56
39 63 53 7 14 46 48 87 76 41 27 114 88 161 135 93 92 192 217 183 231 -3 5
-1 9 4 9 5 0 9 6 9 13 0 6 25 76 56 155 32 78 57 146 57 151 0 5 7 22 15 37
24 47 46 166 43 229 -2 33 -6 53 -10 45z"/>
<path d="M3643 3891 c-73 -22 -78 -34 -7 -14 61 17 70 21 63 26 -2 2 -27 -3
-56 -12z"/>
<path d="M263 3860 c0 -25 2 -35 4 -22 2 12 2 32 0 45 -2 12 -4 2 -4 -23z"/>
<path d="M1390 3833 l-55 -58 58 55 c31 30 57 56 57 57 0 8 -10 -1 -60 -54z"/>
<path d="M251 3789 c-2 -51 -52 -204 -89 -274 -21 -40 -64 -98 -99 -135 -35
-35 -62 -68 -60 -73 1 -5 35 25 74 66 48 50 83 100 111 155 43 86 76 211 69
258 -4 29 -4 29 -6 3z"/>
<path d="M5099 3754 c-26 -31 -239 -165 -509 -320 -250 -143 -550 -330 -575
-359 -19 -22 -93 -75 -104 -75 -6 0 -11 -6 -11 -14 0 -7 -16 -26 -35 -40 -42
-33 -84 -93 -113 -165 -31 -77 -27 -85 11 -19 72 128 147 194 462 405 102 69
452 249 688 354 54 24 108 53 120 64 12 12 37 30 55 40 31 19 32 22 32 82 0
35 -2 63 -4 63 -2 0 -9 -7 -17 -16z"/>
<path d="M1264 3718 l-29 -33 33 29 c30 28 37 36 29 36 -2 0 -16 -15 -33 -32z"/>
<path d="M3740 3656 c-258 -78 -487 -200 -812 -432 -64 -46 -121 -84 -126 -84
-5 0 -13 -7 -16 -16 -3 -8 -10 -13 -15 -10 -5 3 -12 -1 -15 -10 -4 -9 -9 -14
-12 -11 -3 3 -34 -16 -68 -41 -131 -97 -318 -219 -441 -286 -146 -81 -298
-191 -383 -276 -153 -154 -160 -164 -216 -318 -25 -71 -58 -141 -80 -170 -48
-66 -124 -121 -206 -150 l-65 -23 49 5 c66 8 140 50 207 117 48 49 62 72 106
181 28 69 68 152 89 184 88 134 263 274 518 416 83 46 170 99 195 119 26 19
98 70 161 112 63 42 151 101 195 132 44 30 98 65 120 77 22 11 58 35 80 52 57
46 261 185 282 193 10 4 39 21 64 38 133 90 454 200 566 193 53 -3 54 -3 32
15 -30 24 -116 21 -209 -7z"/>
<path d="M381 3594 c0 -11 3 -14 6 -6 3 7 2 16 -1 19 -3 4 -6 -2 -5 -13z"/>
<path d="M3054 3522 c-52 -49 -101 -102 -93 -102 2 0 38 34 79 75 83 84 91 99
14 27z"/>
<path d="M2835 3489 c-179 -109 -367 -184 -1011 -399 -258 -87 -515 -177 -570
-200 -125 -53 -254 -120 -254 -131 0 -13 9 -11 38 10 45 32 382 169 507 207
466 140 736 235 942 330 40 18 91 40 115 48 103 35 291 141 312 175 9 14 13
16 -79 -40z"/>
<path d="M3842 3505 c-5 -92 -25 -130 -172 -315 -203 -256 -299 -431 -436
-795 -45 -122 -125 -386 -121 -399 3 -6 10 9 17 34 47 173 244 624 349 798 67
112 238 338 292 387 43 38 129 138 129 149 0 3 16 31 36 62 44 69 38 83 -7 17
-43 -62 -100 -123 -163 -176 -53 -45 -53 -37 1 30 54 68 85 144 80 200 -3 46
-3 46 -5 8z"/>
<path d="M3638 3498 c-89 -19 -308 -148 -474 -279 -60 -47 -117 -130 -101
-146 5 -4 11 -3 15 2 4 6 25 23 47 40 22 16 44 35 48 42 4 7 13 13 19 13 7 0
32 17 57 38 130 108 366 246 444 259 28 4 35 9 27 18 -15 19 -40 22 -82 13z"/>
<path d="M2910 3475 c-19 -14 -29 -25 -23 -25 12 0 73 49 62 50 -3 0 -20 -11
-39 -25z"/>
<path d="M2817 3415 c-55 -38 -474 -251 -570 -291 -45 -18 -74 -34 -64 -34 33
0 187 59 230 89 23 15 84 50 136 76 145 72 274 145 296 166 27 26 17 24 -28
-6z"/>
<path d="M2988 3331 c-26 -20 -102 -68 -168 -106 -66 -39 -211 -130 -322 -204
-141 -92 -257 -159 -378 -218 -204 -99 -263 -133 -385 -223 -115 -85 -180
-148 -235 -230 -109 -163 -177 -236 -298 -322 -141 -100 -234 -192 -325 -320
-37 -53 -74 -99 -82 -102 -16 -6 -50 -66 -37 -66 5 0 27 23 50 51 23 29 63 75
89 104 27 29 69 77 95 107 35 41 68 66 130 98 111 57 132 72 180 138 23 32 55
71 70 87 16 17 69 86 118 155 117 163 137 185 250 275 125 101 247 175 391
241 65 29 155 75 201 103 46 27 95 55 111 62 15 7 27 16 27 21 0 4 3 8 8 8 4
0 78 46 164 103 86 56 196 127 244 157 75 48 169 120 154 119 -3 0 -26 -17
-52 -38z m-1697 -1275 c-12 -13 -59 -50 -104 -82 -45 -32 -104 -76 -132 -98
l-50 -40 50 53 c55 58 245 205 253 196 3 -3 -5 -16 -17 -29z"/>
<path d="M3138 3295 c-180 -124 -251 -175 -400 -285 -146 -109 -265 -184 -514
-323 -205 -114 -365 -245 -444 -363 -28 -42 -49 -79 -46 -81 2 -3 16 3 30 12
14 10 26 13 26 8 0 -22 -53 -250 -62 -267 -7 -13 -7 -16 1 -12 20 13 11 -19
-18 -65 -69 -108 -250 -245 -388 -294 -186 -67 -313 -119 -388 -159 -89 -47
-293 -180 -340 -221 -38 -33 -30 -30 75 36 200 124 250 153 340 199 53 26 118
55 145 63 217 67 297 107 440 216 84 65 155 155 155 197 0 13 13 86 29 164 24
113 36 151 66 200 67 110 267 267 535 419 96 55 198 115 225 133 84 55 245
179 309 238 85 78 146 124 146 110 0 -7 20 6 44 28 24 22 62 52 85 67 22 15
41 29 41 31 0 10 -21 -2 -92 -51z"/>
<path d="M68 3134 c-53 -52 -68 -73 -68 -95 0 -16 1 -29 3 -29 2 0 21 9 43 19
23 11 41 15 45 10 3 -6 23 10 43 36 21 25 33 45 28 45 -6 0 -8 9 -5 20 3 12 0
20 -6 20 -7 0 -9 5 -6 10 3 6 1 10 -5 10 -6 0 -8 5 -5 10 12 20 -1 9 -67 -56z"/>
<path d="M4997 3115 c-198 -141 -360 -235 -550 -315 -97 -41 -176 -78 -177
-82 -1 -20 377 155 510 236 143 88 363 247 339 246 -2 0 -57 -38 -122 -85z"/>
<path d="M1255 3183 c-111 -23 -239 -98 -400 -234 -297 -249 -359 -299 -436
-350 -94 -63 -191 -114 -324 -170 -68 -28 -91 -43 -93 -58 -2 -12 1 -21 7 -21
32 0 361 153 361 168 0 9 73 55 81 50 3 -2 12 4 21 12 19 18 86 76 193 167 44
37 83 71 86 76 3 5 36 32 72 60 36 29 96 78 133 109 117 99 201 150 289 175
67 18 75 30 10 16z"/>
<path d="M2495 3129 c-89 -67 -113 -88 -75 -68 53 30 177 130 159 129 -2 0
-40 -28 -84 -61z"/>
<path d="M5091 3136 c-14 -14 -23 -28 -20 -30 7 -8 51 33 47 44 -2 6 -14 0
-27 -14z"/>
<path d="M5046 3093 c-6 -14 -5 -15 5 -6 7 7 10 15 7 18 -3 3 -9 -2 -12 -12z"/>
<path d="M4922 3015 c-34 -23 -65 -45 -69 -49 -12 -12 16 -6 29 7 7 6 24 18
38 25 31 16 74 51 69 56 -2 2 -32 -15 -67 -39z"/>
<path d="M5085 3016 c-155 -102 -280 -177 -375 -223 -154 -75 -331 -172 -350
-193 -8 -9 -52 -47 -97 -84 -46 -37 -83 -71 -83 -74 0 -4 -10 -12 -22 -17 -13
-6 -22 -17 -20 -24 1 -7 -2 -10 -7 -7 -5 4 -12 2 -16 -4 -3 -5 1 -10 9 -10 28
0 25 -17 -12 -61 -20 -24 17 11 83 77 129 130 205 185 455 329 74 42 191 114
260 160 69 45 144 93 167 106 24 13 43 27 43 32 0 10 -12 8 -35 -7z"/>
<path d="M5044 2934 c-18 -14 -18 -15 4 -4 12 6 22 13 22 15 0 8 -5 6 -26 -11z"/>
<path d="M5045 2894 c-77 -47 -338 -178 -347 -176 -5 1 -8 -3 -8 -9 0 -5 -4
-7 -10 -4 -5 3 -10 2 -10 -2 0 -5 -26 -22 -57 -38 -177 -88 -316 -197 -459
-357 -234 -262 -266 -321 -368 -693 -42 -151 -120 -317 -196 -415 -27 -36 -91
-108 -141 -160 l-91 -95 70 85 c87 107 160 209 199 280 36 63 86 180 80 186
-2 2 -16 -26 -31 -64 -60 -146 -180 -316 -338 -478 -59 -61 -108 -114 -108
-118 0 -4 -9 -21 -21 -37 -37 -53 -8 -30 102 77 59 59 111 110 116 113 4 3 23
23 40 44 18 20 36 36 40 35 16 -4 151 165 197 246 48 86 151 379 142 403 -3 7
-1 13 3 13 5 0 7 10 4 21 -4 14 0 26 9 33 8 6 19 22 23 36 4 14 27 67 52 118
37 79 57 106 131 179 48 48 81 83 75 79 -67 -38 121 159 232 245 46 35 144 93
230 136 83 42 152 79 153 84 2 5 8 9 13 9 6 0 18 8 29 18 10 9 67 44 127 76
203 111 193 104 193 136 0 17 -3 30 -7 30 -5 0 -35 -16 -68 -36z m-921 -703
c3 -5 -1 -14 -8 -20 -12 -10 -13 -8 -9 8 6 23 9 25 17 12z m-584 -1084 c0 -2
-10 -12 -22 -23 l-23 -19 19 23 c18 21 26 27 26 19z"/>
<path d="M4988 2904 c-38 -20 -36 -28 2 -9 17 9 30 18 30 20 0 7 -1 6 -32 -11z"/>
<path d="M4660 2860 c-52 -27 -92 -49 -88 -49 13 -2 176 77 182 88 10 15 13
16 -94 -39z"/>
<path d="M879 2860 c-30 -22 -103 -86 -164 -143 -136 -127 -202 -182 -282
-235 -81 -55 -247 -141 -350 -183 -61 -24 -83 -38 -83 -51 0 -25 9 -23 118 21
211 85 353 182 567 390 55 53 136 129 180 169 89 80 94 92 14 32z"/>
<path d="M960 2883 c-45 -31 -79 -80 -95 -133 -7 -23 -5 -23 16 6 13 17 36 42
50 55 22 20 66 89 56 89 -1 0 -14 -8 -27 -17z"/>
<path d="M1590 2832 c-78 -31 -162 -72 -125 -60 22 7 230 90 234 94 12 11 -23
0 -109 -34z"/>
<path d="M1913 2860 c-34 -14 -28 -21 7 -9 17 6 30 13 30 15 0 6 -12 4 -37 -6z"/>
<path d="M1764 2796 c-204 -88 -439 -226 -683 -399 -204 -145 -252 -190 -340
-316 -83 -119 -106 -150 -204 -271 -38 -47 -50 -65 -26 -40 23 25 95 110 159
190 65 80 154 184 198 231 89 94 218 188 260 190 27 1 27 1 -3 9 -16 4 -24 8
-17 9 7 0 55 30 105 65 51 35 148 96 217 135 69 39 136 79 149 88 13 10 28 17
33 16 4 -2 8 2 8 8 0 5 5 7 10 4 6 -3 10 -2 10 4 0 5 9 13 20 16 33 10 226
104 215 104 -5 1 -56 -19 -111 -43z"/>
<path d="M3073 2679 c-54 -112 -77 -150 -87 -146 -11 4 -13 1 -9 -10 4 -9 2
-14 -3 -11 -5 4 -43 -71 -84 -165 -132 -301 -217 -465 -335 -642 -63 -93 -136
-197 -164 -230 -28 -33 -86 -103 -130 -155 -91 -111 -180 -196 -242 -232 -62
-36 -125 -54 -271 -78 -242 -40 -391 -96 -571 -217 -139 -92 -330 -246 -408
-330 -131 -140 -231 -305 -263 -435 -5 -24 -3 -28 14 -28 16 0 31 22 70 104
100 211 266 387 619 655 154 118 389 208 607 235 236 29 290 57 517 276 81 78
97 100 197 275 143 252 237 439 305 610 49 122 150 329 176 361 35 42 154 315
137 314 -2 0 -36 -68 -75 -151z"/>
<path d="M3187 2703 c-35 -60 -68 -119 -72 -133 -7 -24 -6 -24 7 -5 8 11 37
61 65 110 66 120 74 135 70 135 -3 0 -34 -48 -70 -107z"/>
<path d="M2571 2729 c-30 -21 -126 -83 -213 -136 -264 -162 -354 -273 -437
-537 -45 -146 -31 -137 27 15 69 181 139 266 333 404 224 159 308 227 348 278
21 27 1 19 -58 -24z"/>
<path d="M1390 2750 c-8 -5 -10 -10 -5 -10 6 0 17 5 25 10 8 5 11 10 5 10 -5
0 -17 -5 -25 -10z"/>
<path d="M1417 2690 c-70 -38 -189 -111 -265 -162 -75 -51 -164 -106 -196
-123 -33 -17 -62 -37 -64 -44 -7 -20 137 57 228 123 47 34 114 80 150 102 36
23 88 55 115 73 28 17 73 42 102 56 41 19 76 45 61 45 -2 0 -61 -31 -131 -70z"/>
<path d="M2738 2726 c-20 -13 -80 -60 -134 -105 -54 -45 -155 -121 -224 -168
-69 -48 -159 -121 -200 -162 -68 -69 -82 -91 -156 -241 -176 -356 -315 -490
-835 -800 -85 -51 -156 -95 -159 -98 -13 -14 49 17 190 95 244 135 287 165
576 394 85 67 144 159 240 371 35 78 71 149 80 158 14 13 14 10 -1 -25 -9 -22
-34 -87 -56 -145 -68 -179 -130 -279 -259 -415 -49 -52 -58 -64 -26 -35 27 24
63 58 79 74 19 21 30 27 34 19 2 -7 11 -13 18 -13 16 0 88 111 123 190 26 59
111 316 112 338 0 17 19 36 44 45 10 4 16 10 13 13 -3 4 13 22 36 41 23 19 69
60 102 91 33 32 89 79 125 107 74 56 107 84 200 172 64 61 112 89 132 77 9 -6
37 23 38 39 0 16 -59 6 -92 -17z"/>
<path d="M4240 2710 c-9 -6 -10 -10 -3 -10 6 0 15 5 18 10 8 12 4 12 -15 0z"/>
<path d="M4945 2634 c-108 -57 -175 -99 -210 -132 -27 -27 -97 -84 -155 -127
-135 -100 -210 -173 -267 -258 -88 -131 -114 -262 -133 -647 -6 -118 -17 -249
-24 -290 -31 -165 -87 -351 -134 -445 -61 -121 -205 -304 -397 -505 -105 -109
-195 -212 -195 -223 0 -2 11 -4 25 -4 14 0 25 3 25 7 0 4 23 30 51 58 27 28
44 49 36 48 -9 -1 -34 -25 -56 -54 -41 -52 -51 -60 -51 -43 0 17 92 111 102
105 25 -15 362 366 413 466 14 27 29 51 35 55 20 13 128 253 143 320 36 159
56 345 58 555 3 253 22 353 94 481 78 138 156 225 287 321 77 57 359 232 465
289 60 32 63 36 63 72 0 20 -3 36 -7 36 -5 -1 -80 -39 -168 -85z"/>
<path d="M3596 2645 c-9 -26 -7 -32 5 -12 6 10 9 21 6 23 -2 3 -7 -2 -11 -11z"/>
<path d="M2654 2546 c-43 -44 -128 -111 -220 -173 -82 -56 -163 -116 -181
-135 -48 -50 -80 -124 -114 -260 -50 -197 -105 -298 -249 -451 -92 -99 -47
-83 63 22 62 59 112 126 146 199 38 79 47 109 71 246 12 66 30 141 42 167 28
67 90 121 200 173 100 48 151 87 239 181 46 49 89 108 77 104 -2 0 -35 -33
-74 -73z"/>
<path d="M3552 2523 c-17 -48 -42 -115 -56 -148 -29 -70 -49 -173 -71 -373
-15 -139 -49 -282 -81 -345 -48 -95 -133 -174 -211 -197 -35 -11 -43 -18 -49
-44 -11 -51 -109 -343 -159 -471 -26 -66 -48 -133 -50 -149 -3 -15 -7 -37 -10
-47 -25 -77 63 97 142 281 37 86 85 216 97 265 27 104 27 102 78 130 92 50
150 116 205 235 35 76 61 225 73 418 9 154 15 195 37 255 52 145 93 271 89
274 -2 2 -17 -35 -34 -84z"/>
<path d="M3980 2566 c-116 -47 -174 -75 -168 -82 14 -13 268 92 284 117 8 14
-4 10 -116 -35z"/>
<path d="M815 2576 c-100 -78 -384 -267 -462 -308 -50 -26 -150 -66 -222 -89
-72 -22 -131 -45 -131 -50 0 -14 37 -11 78 7 20 8 51 17 69 20 40 5 284 120
369 174 35 22 64 36 64 32 0 -17 -163 -148 -245 -197 -46 -28 -140 -77 -209
-109 l-126 -59 0 -39 0 -40 88 47 c226 122 465 310 516 407 13 25 48 62 87 91
74 57 166 136 159 136 -3 1 -18 -10 -35 -23z"/>
<path d="M4297 2579 c-10 -6 -23 -8 -30 -6 -17 6 -70 -25 -313 -187 -117 -78
-239 -158 -273 -178 -61 -37 -74 -61 -50 -85 9 -9 17 -6 32 13 10 14 42 38 71
54 28 16 120 78 204 137 84 59 193 132 242 162 82 50 152 100 140 100 -3 0
-13 -4 -23 -10z"/>
<path d="M4997 2546 c-92 -50 -334 -200 -373 -231 -19 -15 -22 -22 -11 -22 9
0 14 4 11 9 -5 7 10 12 29 9 5 -1 6 3 2 9 -6 9 8 14 28 11 5 -1 6 3 3 8 -6 9
31 27 46 23 5 -1 7 4 5 11 -1 6 6 12 15 12 9 0 29 10 45 23 15 12 31 22 36 22
4 0 17 9 29 20 12 10 24 17 28 15 4 -3 14 2 21 11 7 8 45 31 85 51 40 20 75
42 78 50 3 7 4 13 3 12 -1 0 -37 -20 -80 -43z"/>
<path d="M1360 2444 c-225 -207 -276 -269 -90 -108 108 93 239 224 225 224 -6
0 -66 -52 -135 -116z"/>
<path d="M3096 2525 c-9 -26 -7 -32 5 -12 6 10 9 21 6 23 -2 3 -7 -2 -11 -11z"/>
<path d="M5055 2484 c-33 -23 -64 -40 -68 -37 -4 3 -41 -20 -80 -50 -40 -30
-130 -93 -202 -139 -256 -167 -282 -224 -304 -653 -15 -280 -26 -368 -57 -480
-29 -100 -109 -305 -207 -528 -36 -81 -62 -147 -57 -147 9 0 113 228 180 395
104 260 133 381 150 620 34 493 35 498 143 632 54 67 104 108 227 187 89 58
160 111 163 123 1 4 7 7 14 5 7 -2 12 1 11 5 -2 4 0 9 5 11 48 16 -63 -80
-188 -163 -124 -81 -255 -211 -287 -282 -10 -22 -20 -63 -23 -90 -4 -37 -3
-43 4 -25 12 26 21 29 15 4 -3 -9 4 -38 15 -62 l21 -45 0 73 c0 58 5 84 26
125 30 62 135 180 161 182 10 0 46 23 80 49 63 49 189 128 276 172 32 17 47
31 47 44 0 26 -10 25 -70 -5 -67 -34 -63 -17 5 29 56 37 69 53 63 79 -2 9 -21
0 -63 -29z"/>
<path d="M807 2455 c-15 -30 -25 -55 -22 -55 7 0 57 101 53 106 -2 2 -16 -21
-31 -51z"/>
<path d="M5023 2488 c-18 -13 -33 -27 -33 -32 0 -5 12 1 28 15 15 13 31 27 37
31 20 17 -2 7 -32 -14z"/>
<path d="M3056 2435 c-9 -26 -7 -32 5 -12 6 10 9 21 6 23 -2 3 -7 -2 -11 -11z"/>
<path d="M4853 2402 c-24 -15 -43 -31 -43 -35 0 -7 51 26 85 55 19 16 -1 7
-42 -20z"/>
<path d="M2802 2303 c-22 -43 -51 -109 -65 -148 -14 -38 -32 -83 -41 -100 -9
-16 -16 -37 -15 -45 0 -13 1 -13 6 0 3 8 10 18 15 21 5 3 29 60 52 125 24 65
52 135 63 154 22 39 34 70 29 70 -2 0 -22 -35 -44 -77z"/>
<path d="M4758 2342 c-41 -25 -34 -35 7 -11 19 12 35 23 35 25 0 8 -16 3 -42
-14z"/>
<path d="M742 2325 c-17 -37 -14 -45 4 -12 9 16 14 31 11 33 -2 2 -9 -7 -15
-21z"/>
<path d="M5015 2294 c-134 -75 -209 -130 -278 -203 -118 -124 -137 -220 -92
-481 59 -345 40 -676 -57 -979 -37 -116 -67 -178 -121 -251 -33 -44 -54 -90
-41 -90 1 0 32 34 69 75 61 68 68 80 81 144 8 38 27 107 43 152 16 46 42 140
57 209 25 113 28 144 29 320 0 179 -2 206 -29 330 -49 224 -38 334 44 445 67
91 167 173 318 259 81 47 82 48 82 87 0 21 -1 39 -3 39 -1 0 -47 -25 -102 -56z"/>
<path d="M2532 2246 c-89 -95 -118 -144 -192 -312 -84 -191 -126 -265 -200
-357 -86 -105 -199 -197 -345 -279 -111 -62 -166 -82 -350 -128 -220 -55 -379
-136 -685 -349 -243 -169 -382 -314 -470 -494 -56 -115 -80 -196 -80 -274 0
-68 15 -68 24 0 10 77 36 170 52 188 8 8 14 21 14 27 0 25 95 182 148 245 101
119 215 210 447 358 301 191 343 211 585 277 304 84 453 159 608 307 133 126
184 210 307 510 16 39 61 117 101 175 68 101 109 170 100 170 -2 0 -31 -29
-64 -64z"/>
<path d="M1096 2275 c-15 -61 -98 -221 -153 -295 -31 -41 -94 -122 -141 -180
l-84 -105 86 88 c85 88 201 235 244 311 25 42 66 180 59 199 -2 6 -7 -2 -11
-18z"/>
<path d="M716 2265 c-9 -26 -7 -32 5 -12 6 10 9 21 6 23 -2 3 -7 -2 -11 -11z"/>
<path d="M404 2251 c-5 -5 -76 -43 -159 -85 -82 -42 -139 -74 -125 -71 30 8
257 120 284 140 11 8 17 17 15 20 -3 2 -10 1 -15 -4z"/>
<path d="M4570 2224 c-94 -66 -158 -133 -199 -212 -41 -79 -51 -117 -30 -110
6 2 18 26 27 53 26 76 98 170 180 236 74 60 86 78 22 33z"/>
<path d="M3858 2153 c-55 -58 -108 -131 -108 -150 0 -24 17 -5 52 55 18 31 50
76 71 100 54 57 42 53 -15 -5z"/>
<path d="M3301 2174 c0 -11 3 -14 6 -6 3 7 2 16 -1 19 -3 4 -6 -2 -5 -13z"/>
<path d="M657 2113 c-15 -37 -25 -68 -23 -70 2 -2 16 26 30 63 15 36 25 68 23
70 -2 2 -16 -26 -30 -63z"/>
<path d="M3267 2025 c-15 -69 -59 -218 -97 -332 -39 -113 -68 -208 -66 -210 7
-8 34 9 39 25 3 9 18 44 32 77 59 135 107 331 120 483 4 45 5 82 4 82 -2 0
-17 -56 -32 -125z"/>
<path d="M5029 2045 c-95 -96 -175 -225 -140 -225 5 0 43 33 83 73 40 40 90
87 111 104 33 28 37 36 37 77 0 25 -4 46 -8 46 -4 0 -42 -34 -83 -75z"/>
<path d="M587 1969 c-20 -33 -31 -56 -23 -50 13 11 70 111 63 111 -2 0 -20
-27 -40 -61z"/>
<path d="M3845 1949 c-9 -17 -15 -33 -13 -35 3 -2 12 12 21 31 21 43 13 47 -8
4z"/>
<path d="M1699 1953 c-13 -16 -12 -17 4 -4 9 7 17 15 17 17 0 8 -8 3 -21 -13z"/>
<path d="M1606 1887 c-24 -37 -71 -82 -186 -178 -14 -11 10 3 54 32 43 28 109
81 145 118 37 36 55 56 40 43 l-26 -23 4 25 c7 37 0 32 -31 -17z"/>
<path d="M3955 1855 c-16 -33 -32 -62 -35 -65 -10 -10 -11 -110 -1 -127 8 -14
10 -9 11 28 0 31 10 66 31 107 18 36 29 73 27 89 -3 25 -6 22 -33 -32z"/>
<path d="M529 1883 c-13 -16 -12 -17 4 -4 9 7 17 15 17 17 0 8 -8 3 -21 -13z"/>
<path d="M3816 1885 c-9 -26 -7 -32 5 -12 6 10 9 21 6 23 -2 3 -7 -2 -11 -11z"/>
<path d="M4341 1874 c0 -11 3 -14 6 -6 3 7 2 16 -1 19 -3 4 -6 -2 -5 -13z"/>
<path d="M474 1818 l-29 -33 33 29 c17 17 32 31 32 33 0 8 -8 1 -36 -29z"/>
<path d="M899 1833 c-13 -16 -12 -17 4 -4 9 7 17 15 17 17 0 8 -8 3 -21 -13z"/>
<path d="M4072 1830 c0 -14 2 -19 5 -12 2 6 2 18 0 25 -3 6 -5 1 -5 -13z"/>
<path d="M773 1692 c-97 -103 -218 -272 -195 -272 4 0 24 28 44 63 20 35 62
93 95 129 122 138 174 198 170 198 -2 0 -54 -53 -114 -118z"/>
<path d="M3781 1774 c0 -11 3 -14 6 -6 3 7 2 16 -1 19 -3 4 -6 -2 -5 -13z"/>
<path d="M4357 1730 c-4 -30 -6 -75 -6 -100 1 -27 5 -9 10 45 10 99 6 142 -4
55z"/>
<path d="M4511 1744 c0 -11 3 -14 6 -6 3 7 2 16 -1 19 -3 4 -6 -2 -5 -13z"/>
<path d="M3771 1734 c0 -11 3 -14 6 -6 3 7 2 16 -1 19 -3 4 -6 -2 -5 -13z"/>
<path d="M3761 1694 c0 -11 3 -14 6 -6 3 7 2 16 -1 19 -3 4 -6 -2 -5 -13z"/>
<path d="M399 1663 l-24 -28 28 24 c25 23 32 31 24 31 -2 0 -14 -12 -28 -27z"/>
<path d="M694 1668 l-19 -23 23 19 c21 18 27 26 19 26 -2 0 -12 -10 -23 -22z"/>
<path d="M4521 1674 c0 -11 3 -14 6 -6 3 7 2 16 -1 19 -3 4 -6 -2 -5 -13z"/>
<path d="M4497 1600 c-11 -118 -33 -242 -67 -372 -15 -60 -24 -106 -20 -102
14 15 78 273 90 364 6 47 10 110 8 140 -3 52 -3 50 -11 -30z"/>
<path d="M3751 1654 c0 -11 3 -14 6 -6 3 7 2 16 -1 19 -3 4 -6 -2 -5 -13z"/>
<path d="M4531 1634 c0 -11 3 -14 6 -6 3 7 2 16 -1 19 -3 4 -6 -2 -5 -13z"/>
<path d="M3741 1614 c0 -11 3 -14 6 -6 3 7 2 16 -1 19 -3 4 -6 -2 -5 -13z"/>
<path d="M4073 1570 c0 -30 2 -43 4 -27 2 15 2 39 0 55 -2 15 -4 2 -4 -28z"/>
<path d="M3912 1570 c0 -14 2 -19 5 -12 2 6 2 18 0 25 -3 6 -5 1 -5 -13z"/>
<path d="M4525 1508 c-3 -40 -15 -109 -25 -153 -24 -104 -100 -316 -110 -310
-5 3 -12 0 -16 -6 -4 -8 -3 -9 4 -5 17 10 15 -6 -8 -55 -13 -29 -20 -37 -21
-24 0 13 -9 2 -24 -30 -12 -27 -21 -53 -19 -57 2 -3 0 -8 -5 -10 -5 -1 -29
-48 -54 -103 -69 -154 -176 -382 -270 -578 -73 -152 -83 -177 -66 -177 14 0
32 25 69 100 28 55 47 100 43 100 -5 0 -3 4 3 8 14 9 51 81 105 205 23 51 74
160 114 242 113 233 134 281 182 415 73 202 102 313 109 416 8 110 -1 128 -11
22z"/>
<path d="M4343 1490 c0 -41 2 -58 4 -37 2 20 2 54 0 75 -2 20 -4 3 -4 -38z"/>
<path d="M3862 1420 c-70 -158 -167 -274 -404 -481 -157 -137 -245 -223 -301
-294 -19 -24 7 -4 63 48 52 49 172 146 265 216 238 179 289 240 366 432 40 99
49 165 11 79z"/>
<path d="M4536 1343 c-9 -123 -28 -219 -74 -358 -29 -90 -36 -127 -37 -200 -1
-49 -5 -106 -8 -125 -6 -33 -6 -34 3 -5 17 54 82 318 107 430 17 80 23 143 24
229 0 65 -2 120 -4 122 -2 3 -7 -39 -11 -93z"/>
<path d="M4910 1414 c0 -12 97 -171 110 -179 7 -4 -94 171 -106 184 -2 2 -4 0
-4 -5z"/>
<path d="M4332 1355 c0 -16 2 -22 5 -12 2 9 2 23 0 30 -3 6 -5 -1 -5 -18z"/>
<path d="M4322 1280 c0 -14 2 -19 5 -12 2 6 2 18 0 25 -3 6 -5 1 -5 -13z"/>
<path d="M984 1232 c-43 -22 -97 -45 -119 -52 -43 -14 -265 -142 -383 -222
-83 -56 -152 -121 -152 -142 0 -8 24 9 53 37 32 32 114 88 212 147 88 52 162
97 165 100 10 13 125 70 152 75 15 3 33 11 41 19 7 8 40 28 73 44 85 45 53 39
-42 -6z"/>
<path d="M937 1094 c-50 -39 -66 -59 -19 -25 49 37 77 61 71 61 -3 0 -27 -16
-52 -36z"/>
<path d="M1605 1094 c-191 -44 -336 -112 -511 -242 -104 -77 -97 -97 9 -23
103 72 318 174 486 232 199 68 203 75 16 33z"/>
<path d="M4393 1093 c-3 -10 -8 -22 -11 -27 -3 -5 0 -6 5 -3 11 7 25 47 17 47
-3 0 -7 -8 -11 -17z"/>
<path d="M5062 1030 c-29 -41 -67 -104 -84 -138 -32 -69 -90 -233 -84 -239 5
-6 146 183 146 195 0 14 41 101 63 134 13 18 17 41 15 75 l-3 48 -53 -75z"/>
<path d="M660 956 c-47 -35 -105 -83 -130 -106 -38 -35 8 -1 190 142 70 54 23
26 -60 -36z"/>
<path d="M84 932 c-74 -44 -79 -50 -82 -84 l-3 -36 61 59 c34 32 63 59 66 59
8 0 46 42 42 46 -3 2 -40 -17 -84 -44z"/>
<path d="M770 955 c-13 -16 -254 -200 -330 -252 -50 -34 -100 -81 -174 -161
-27 -30 -54 -51 -62 -48 -8 3 -30 -21 -58 -67 -89 -143 -147 -295 -145 -382 1
-36 4 -30 34 60 52 156 65 188 82 200 9 7 13 16 10 22 -3 5 4 20 16 34 13 13
36 42 52 64 67 92 145 173 235 244 52 41 97 78 100 81 3 3 53 42 111 88 98 76
160 132 147 132 -3 0 -11 -7 -18 -15z"/>
<path d="M2015 939 c-16 -5 -95 -22 -175 -39 -135 -27 -286 -81 -409 -144 -18
-10 -35 -15 -39 -12 -3 3 33 24 80 46 75 35 88 45 117 91 17 28 30 53 29 55
-6 5 -200 -129 -282 -193 -40 -32 -140 -117 -222 -189 -207 -182 -281 -285
-344 -477 -22 -67 -24 -77 -12 -77 5 0 14 19 21 42 76 258 263 456 541 573 45
20 168 78 273 131 146 73 214 101 290 120 105 26 200 67 176 76 -8 3 -27 1
-44 -3z"/>
<path d="M3615 901 c-44 -27 -125 -74 -179 -106 -120 -70 -271 -190 -360 -286
-48 -52 -79 -98 -112 -168 -57 -119 -91 -206 -109 -283 l-14 -59 26 3 c20 2
29 11 38 43 22 69 111 248 148 298 21 26 37 52 37 57 0 17 191 204 260 255 36
26 141 92 233 147 93 55 171 106 174 115 7 17 -13 33 -42 33 -11 0 -56 -22
-100 -49z"/>
<path d="M4201 943 c-1 -6 -4 -20 -7 -30 -5 -17 -5 -17 6 0 6 10 9 23 6 30 -3
9 -5 9 -5 0z"/>
<path d="M5001 755 c-63 -79 -118 -142 -123 -139 -4 3 -5 -3 -1 -12 4 -11 2
-15 -4 -11 -6 4 -26 -16 -44 -46 -29 -44 -92 -122 -195 -239 -13 -16 -22 -28
-19 -28 4 0 -1 -10 -10 -22 -8 -13 -20 -23 -25 -23 -10 0 -135 -156 -163 -204
l-18 -31 55 0 54 0 37 74 c20 41 43 77 50 80 7 2 16 18 20 35 9 41 73 139 154
236 37 44 88 107 113 141 26 33 90 107 142 165 80 87 96 109 96 136 0 18 -1
33 -2 33 -2 -1 -54 -66 -117 -145z"/>
<path d="M3727 711 c-48 -99 -120 -207 -261 -391 -62 -80 -121 -158 -132 -175
-35 -51 -66 -105 -61 -105 3 0 16 16 28 37 12 20 83 113 157 207 161 204 263
355 292 432 32 86 20 83 -23 -5z"/>
<path d="M3867 688 c-26 -51 -45 -84 -43 -73 17 73 14 73 -23 3 -62 -121 -155
-251 -270 -382 -58 -67 -128 -147 -155 -179 l-48 -57 34 0 c31 0 43 10 131
113 53 61 124 144 158 182 33 39 78 95 99 125 51 75 148 259 154 293 2 15 8
36 11 47 12 39 -1 19 -48 -72z"/>
<path d="M3081 688 c-58 -69 -70 -88 -53 -88 11 0 60 47 78 75 9 14 19 23 23
21 3 -2 12 2 19 10 9 10 9 14 1 14 -9 0 -9 3 0 14 7 9 8 17 3 20 -6 3 -37 -26
-71 -66z"/>
<path d="M2845 709 c-4 -6 -5 -12 -2 -15 2 -3 7 2 10 11 7 17 1 20 -8 4z"/>
<path d="M4021 592 c-100 -201 -244 -415 -359 -535 l-56 -57 61 0 61 0 45 73
c47 76 256 471 262 497 2 8 16 44 30 78 44 105 23 79 -44 -56z"/>
<path d="M236 635 c-20 -30 -36 -57 -36 -61 0 -3 -13 -24 -28 -47 -38 -55
-102 -171 -102 -183 1 -5 10 9 22 31 11 22 51 87 88 145 67 104 104 170 97
170 -2 0 -21 -25 -41 -55z"/>
<path d="M5051 633 c-77 -45 -295 -252 -356 -338 -60 -83 -77 -130 -73 -201
l3 -59 13 43 c21 70 133 174 352 329 67 47 124 92 126 98 3 6 4 46 2 89 l-3
76 -64 -37z"/>
<path d="M1460 635 c-85 -44 -299 -262 -378 -385 -49 -76 -114 -217 -110 -238
2 -9 18 20 36 64 19 45 56 116 84 158 66 100 241 287 331 354 107 80 112 87
37 47z"/>
<path d="M1810 585 c-140 -129 -368 -393 -353 -409 4 -3 1 -6 -5 -6 -7 0 -12
-7 -12 -15 0 -8 -5 -15 -11 -15 -5 0 -7 -4 -4 -10 3 -5 1 -10 -6 -10 -7 0 -10
-3 -6 -6 3 -4 -1 -13 -9 -21 -8 -8 -12 -19 -9 -24 4 -5 2 -9 -3 -9 -5 0 -12
-14 -14 -30 -8 -51 16 -34 45 33 35 80 125 200 268 356 114 123 195 221 184
221 -3 0 -32 -25 -65 -55z"/>
<path d="M2004 558 c-161 -167 -291 -315 -410 -468 -69 -89 -69 -90 -42 -90
15 0 31 12 48 37 49 73 258 330 357 439 86 95 132 154 121 154 -2 0 -35 -33
-74 -72z"/>
<path d="M2135 508 c-125 -144 -285 -360 -334 -450 l-31 -58 28 0 c25 0 34 11
87 105 33 58 77 129 98 156 61 82 219 311 215 313 -2 2 -30 -28 -63 -66z"/>
<path d="M3977 413 c-191 -354 -220 -413 -199 -413 16 0 43 47 135 233 107
215 153 317 143 317 -2 0 -38 -62 -79 -137z"/>
<path d="M4050 409 c-8 -19 -14 -37 -12 -41 1 -5 -3 -8 -9 -8 -5 0 -8 -4 -5
-9 4 -5 2 -11 -3 -13 -5 -1 -31 -48 -59 -103 -27 -55 -66 -129 -86 -163 -41
-72 -41 -72 -23 -72 15 0 222 411 215 430 -2 8 -10 -1 -18 -21z"/>
<path d="M839 373 l-24 -28 28 24 c25 23 32 31 24 31 -2 0 -14 -12 -28 -27z"/>
<path d="M2500 380 c-6 -11 -8 -20 -6 -20 3 0 10 9 16 20 6 11 8 20 6 20 -3 0
-10 -9 -16 -20z"/>
<path d="M2409 243 c-148 -211 -163 -233 -157 -239 12 -12 27 7 121 154 143
225 156 255 36 85z"/>
<path d="M779 298 c-38 -52 -70 -120 -98 -212 -23 -76 -25 -86 -12 -86 5 0 11
12 14 28 11 56 69 202 102 256 40 67 37 72 -6 14z"/>
<path d="M5040 202 c-41 -37 -91 -80 -110 -96 -31 -26 -32 -27 -5 -11 101 60
201 144 194 163 -2 6 -38 -20 -79 -56z"/>
<path d="M2544 181 c-16 -17 -59 -59 -96 -95 -71 -69 -81 -86 -48 -86 14 0 34
21 65 70 64 101 71 91 13 -18 l-29 -53 28 3 c25 3 31 13 66 102 21 54 37 100
34 102 -2 2 -17 -9 -33 -25z"/>
<path d="M5103 155 c-6 -12 -20 -43 -31 -70 -11 -28 -23 -58 -27 -67 -6 -15
-2 -18 23 -18 20 0 31 6 35 18 2 9 8 26 13 37 7 20 7 20 -14 1 -28 -24 -29 -9
-1 20 15 16 19 32 17 60 -3 35 -4 37 -15 19z"/>
<path d="M2574 113 c-30 -72 -36 -88 -25 -78 11 12 53 115 46 115 -3 0 -12
-17 -21 -37z"/>
<path d="M1072 31 c-6 -17 -9 -31 -6 -31 7 0 25 52 20 57 -2 2 -8 -10 -14 -26z"/>
</g>
</svg>