<?xml version="1.0" standalone="no"?>
<!DOCTYPE svg PUBLIC "-//W3C//DTD SVG 20010904//EN"
 "http://www.w3.org/TR/2001/REC-SVG-20010904/DTD/svg10.dtd">
<svg version="1.0" xmlns="http://www.w3.org/2000/svg"
 width="512.000000pt" height="512.000000pt" viewBox="0 0 512.000000 512.000000"
 preserveAspectRatio="xMidYMid meet">
<g transform="translate(0.000000,512.000000) scale(0.100000,-0.100000)"
fill="#000000" stroke="none">
<path d="M2407 3524 c-125 -22 -242 -74 -352 -155 -88 -65 -209 -201 -254
-286 -23 -45 -3 -22 34 38 47 76 139 175 219 235 273 205 636 229 936 61 101
-57 258 -213 322 -322 109 -184 142 -383 99 -590 -42 -206 -127 -351 -281
-483 -130 -111 -288 -173 -480 -190 l-85 -7 -3 -32 -3 -33 79 0 c224 0 432 88
594 252 123 124 199 273 229 452 19 114 7 314 -26 416 -32 100 -100 234 -157
308 -206 266 -541 396 -871 336z"/>
<path d="M2430 3410 c-305 -81 -524 -341 -575 -682 l-7 -46 39 -4 c55 -7 63
-1 63 46 0 64 26 152 72 246 33 68 58 102 132 175 149 150 299 212 481 202
136 -8 298 -71 396 -155 36 -31 40 -32 29 -11 -46 87 -167 182 -280 220 -94
32 -250 36 -350 9z"/>
<path d="M2617 3253 c-4 -3 -7 -34 -7 -69 l0 -62 78 -17 c103 -23 200 -69 297
-142 91 -68 139 -120 197 -213 41 -67 42 -56 3 42 -74 183 -261 341 -448 378
-59 12 -67 16 -67 36 0 35 -11 54 -29 54 -10 0 -21 -3 -24 -7z"/>
<path d="M2460 3030 c-25 -5 -57 -15 -72 -21 l-28 -11 0 -159 0 -159 35 0 35
0 0 118 c0 64 4 122 8 129 12 20 110 36 171 29 121 -14 236 -100 282 -210 22
-54 24 -56 60 -56 l38 0 -19 55 c-37 108 -126 206 -235 256 -49 24 -80 31
-146 34 -46 2 -104 0 -129 -5z"/>
<path d="M1756 2995 c-9 -26 -7 -32 5 -12 6 10 9 21 6 23 -2 3 -7 -2 -11 -11z"/>
<path d="M1721 2884 c0 -11 3 -14 6 -6 3 7 2 16 -1 19 -3 4 -6 -2 -5 -13z"/>
<path d="M1711 2844 c0 -11 3 -14 6 -6 3 7 2 16 -1 19 -3 4 -6 -2 -5 -13z"/>
<path d="M1730 2815 c-7 -8 -16 -13 -20 -10 -4 3 -10 -5 -13 -16 -5 -19 -3
-19 24 7 16 15 29 29 29 31 0 7 -8 2 -20 -12z"/>
<path d="M1758 2780 c-85 -66 -90 -323 -12 -545 14 -38 29 -85 34 -104 9 -37
76 -140 135 -208 46 -54 176 -140 296 -198 224 -106 473 -121 729 -45 71 21
174 81 184 106 5 14 2 14 -21 -2 -54 -35 -128 -74 -143 -74 -8 0 14 16 50 35
109 59 97 64 -17 8 -127 -63 -209 -83 -350 -83 -179 0 -334 47 -490 150 -209
137 -314 291 -364 535 -21 102 -25 288 -8 379 6 32 9 60 6 62 -2 2 -15 -5 -29
-16z"/>
<path d="M2637 2793 c-15 -15 -6 -33 18 -33 16 0 41 -17 74 -50 34 -34 55 -48
66 -44 22 9 12 51 -21 85 -33 35 -119 61 -137 42z"/>
<path d="M3572 2780 c0 -14 2 -19 5 -12 2 6 2 18 0 25 -3 6 -5 1 -5 -13z"/>
<path d="M3585 2670 c2 -41 0 -117 -6 -169 -38 -343 -234 -626 -558 -804 -93
-51 -78 -60 23 -14 97 45 155 86 240 166 195 187 295 402 311 673 3 51 1 122
-4 158 l-10 65 4 -75z"/>
<path d="M1671 2704 c0 -11 3 -14 6 -6 3 7 2 16 -1 19 -3 4 -6 -2 -5 -13z"/>
<path d="M1662 2660 c0 -14 2 -19 5 -12 2 6 2 18 0 25 -3 6 -5 1 -5 -13z"/>
<path d="M2362 2408 l3 -233 30 0 30 0 3 138 c2 89 -1 137 -8 137 -5 0 -10 14
-10 30 0 28 2 30 40 30 38 0 40 -2 40 -30 0 -25 4 -30 25 -30 25 0 25 1 25 90
0 89 0 90 -25 90 -22 0 -25 -4 -25 -35 0 -34 -1 -35 -40 -35 l-40 0 0 40 c0
36 -2 40 -25 40 l-25 0 2 -232z"/>
<path d="M2812 2624 c-44 -31 -18 -87 47 -100 17 -4 30 -12 28 -18 -4 -12 -38
-12 -77 0 -24 7 -25 7 -9 -17 13 -19 26 -25 66 -27 80 -5 109 43 58 93 -24 24
-52 35 -40 15 3 -5 -2 -10 -12 -10 -20 0 -53 19 -38 21 22 4 41 6 63 8 30 2
28 25 -3 39 -35 16 -56 15 -83 -4z"/>
<path d="M2940 2634 c0 -4 15 -25 33 -48 45 -55 57 -79 57 -115 0 -21 5 -31
15 -31 11 0 15 11 15 35 0 23 12 54 33 88 18 29 37 58 41 65 5 8 0 12 -16 12
-15 0 -31 -12 -48 -36 l-24 -36 -29 36 c-19 23 -37 36 -53 36 -13 0 -24 -3
-24 -6z"/>
<path d="M3144 2623 c-4 -10 -20 -48 -35 -85 -35 -81 -36 -88 -4 -88 18 0 25
5 25 20 0 17 7 20 40 20 29 0 42 -5 50 -20 6 -12 21 -20 35 -20 14 0 25 1 25
3 0 2 -17 44 -39 93 -33 77 -42 89 -65 92 -18 2 -28 -2 -32 -15z m46 -62 c0
-5 3 -16 6 -25 5 -12 0 -16 -20 -16 -24 0 -25 2 -14 25 11 24 28 34 28 16z"/>
<path d="M1940 2521 l0 -109 25 11 c20 10 25 19 25 50 0 46 20 49 52 7 17 -23
30 -30 56 -30 l34 0 -25 33 c-24 32 -25 34 -6 45 25 16 24 57 -1 82 -16 16
-33 20 -90 20 l-70 0 0 -109z m120 65 c0 -2 3 -11 6 -20 5 -13 -2 -16 -35 -16
-34 0 -41 3 -41 20 0 16 7 20 35 20 19 0 35 -2 35 -4z"/>
<path d="M2181 2555 c-18 -42 -35 -83 -38 -91 -3 -9 2 -14 16 -14 12 0 24 7
27 15 9 22 100 21 112 -1 5 -9 18 -14 29 -12 20 3 19 7 -17 88 -35 76 -42 85
-68 88 -28 3 -31 -1 -61 -73z m67 -33 c-28 -5 -33 4 -19 35 l13 28 12 -30 c11
-27 11 -30 -6 -33z"/>
<path d="M2600 2548 c-19 -45 -36 -86 -38 -90 -2 -4 9 -8 25 -8 22 0 31 -6 39
-28 6 -16 42 -54 80 -85 38 -31 88 -72 111 -92 36 -31 44 -34 49 -20 5 11 -5
29 -28 53 -67 73 -67 69 -17 112 55 49 30 55 -43 9 l-50 -30 -37 40 c-21 23
-45 41 -54 41 -24 0 -21 27 3 35 23 7 74 -1 107 -17 13 -6 25 -9 28 -6 3 2
-13 41 -35 86 -38 78 -41 82 -72 82 -32 0 -34 -4 -68 -82z m92 -10 c7 -15 4
-18 -22 -18 l-31 0 17 33 c12 22 19 27 22 17 3 -8 9 -23 14 -32z"/>
<path d="M1653 2530 c0 -47 2 -66 4 -42 2 23 2 61 0 85 -2 23 -4 4 -4 -43z"/>
<path d="M1832 2488 c-31 -31 0 -108 44 -108 21 0 24 4 24 41 0 68 -34 101
-68 67z"/>
<path d="M3140 2388 c-82 -172 -246 -301 -437 -344 -108 -24 -224 -10 -332 41
-42 19 -67 28 -56 19 57 -46 209 -93 302 -94 78 0 197 29 275 67 89 44 91 37
6 -18 -77 -49 -148 -76 -251 -93 l-82 -14 60 -1 c148 -2 296 59 406 169 72 72
106 126 138 221 40 118 20 149 -29 47z"/>
<path d="M1662 2400 c0 -14 2 -19 5 -12 2 6 2 18 0 25 -3 6 -5 1 -5 -13z"/>
<path d="M1671 2354 c0 -11 3 -14 6 -6 3 7 2 16 -1 19 -3 4 -6 -2 -5 -13z"/>
<path d="M1681 2314 c0 -11 3 -14 6 -6 3 7 2 16 -1 19 -3 4 -6 -2 -5 -13z"/>
<path d="M2225 2170 c10 -11 20 -20 23 -20 3 0 -3 9 -13 20 -10 11 -20 20 -23
20 -3 0 3 -9 13 -20z"/>
<path d="M2260 2146 c0 -2 8 -10 18 -17 15 -13 16 -12 3 4 -13 16 -21 21 -21
13z"/>
<path d="M3147 1901 c-50 -39 -184 -109 -250 -131 -21 -6 -77 -21 -125 -31
-78 -17 -81 -18 -27 -13 144 15 324 90 419 176 53 48 45 47 -17 -1z"/>
</g>
</svg>